<?xml version="1.0" encoding="UTF-8" standalone="no"?>
<!-- Created with Inkscape (http://www.inkscape.org/) -->

<svg
   width="219.75278mm"
   height="41.33152mm"
   viewBox="0 0 219.75278 41.33152"
   version="1.1"
   id="svg5"
   inkscape:version="1.2 (dc2aedaf03, 2022-05-15)"
   sodipodi:docname="Samsung Galaxy S23.svg"
   xmlns:inkscape="http://www.inkscape.org/namespaces/inkscape"
   xmlns:sodipodi="http://sodipodi.sourceforge.net/DTD/sodipodi-0.dtd"
   xmlns="http://www.w3.org/2000/svg"
   xmlns:svg="http://www.w3.org/2000/svg">
  <sodipodi:namedview
     id="namedview7"
     pagecolor="#505050"
     bordercolor="#eeeeee"
     borderopacity="1"
     inkscape:showpageshadow="0"
     inkscape:pageopacity="0"
     inkscape:pagecheckerboard="0"
     inkscape:deskcolor="#505050"
     inkscape:document-units="mm"
     showgrid="false"
     inkscape:zoom="1.4503086"
     inkscape:cx="417.15259"
     inkscape:cy="227.19302"
     inkscape:window-width="1920"
     inkscape:window-height="1001"
     inkscape:window-x="-9"
     inkscape:window-y="-9"
     inkscape:window-maximized="1"
     inkscape:current-layer="layer1" />
  <defs
     id="defs2" />
  <g
     inkscape:label="Ebene 1"
     inkscape:groupmode="layer"
     id="layer1"
     transform="translate(-23.157046,-125.33237)">
    <text
       xml:space="preserve"
       style="font-style:normal;font-variant:normal;font-weight:bold;font-stretch:normal;font-size:40.9222px;font-family:'Samsung Sharp Sans';-inkscape-font-specification:'Samsung Sharp Sans Bold';fill:#000000;fill-rule:evenodd;stroke-width:0;stroke-linecap:round;stroke-linejoin:bevel;paint-order:markers fill stroke"
       x="19.702703"
       y="169.66216"
       id="text186"><tspan
         sodipodi:role="line"
         id="tspan184"
         style="font-style:normal;font-variant:normal;font-weight:bold;font-stretch:normal;font-size:40.9222px;font-family:'Samsung Sharp Sans';-inkscape-font-specification:'Samsung Sharp Sans Bold';stroke-width:0"
         x="19.702703"
         y="169.66216" /></text>
    <g
       aria-label="Galaxy S23"
       id="text240"
       style="font-weight:bold;font-size:40.9223px;font-family:'Samsung Sharp Sans';-inkscape-font-specification:'Samsung Sharp Sans Bold';fill-rule:evenodd;stroke-width:0;stroke-linecap:round;stroke-linejoin:bevel;paint-order:markers fill stroke">
      <path
         d="m 38.666597,156.02409 q -3.519317,0 -6.383878,-1.22767 -2.823639,-1.22767 -4.869754,-3.3147 -2.046114,-2.12796 -3.151017,-4.91068 -1.104902,-2.78272 -1.104902,-5.89281 0,-3.19194 1.145825,-5.97466 1.145824,-2.82363 3.151017,-4.86975 2.046115,-2.08704 4.828831,-3.27378 2.823639,-1.22767 6.138345,-1.22767 2.332571,0 4.378686,0.57291 2.046115,0.57291 3.764851,1.59597 1.759659,0.98213 3.110095,2.41441 1.391358,1.39136 2.332571,3.06918 l -4.910676,2.9464 q -1.391358,-2.5781 -3.56024,-3.88762 -2.12796,-1.30951 -5.074365,-1.30951 -2.087037,0 -3.887618,0.81845 -1.759659,0.77752 -3.110095,2.12796 -1.309514,1.35043 -2.046115,3.15101 -0.736601,1.80058 -0.736601,3.8467 0,2.08704 0.736601,3.88762 0.736601,1.80058 2.046115,3.15101 1.350436,1.35044 3.191939,2.12796 1.841504,0.77753 4.010385,0.77753 3.355629,0 5.565433,-1.75966 2.250727,-1.75966 3.069172,-4.70607 h -9.534895 v -5.31989 h 15.509551 v 2.2098 q 0,3.02825 -1.023057,5.77004 -1.023058,2.70088 -2.946406,4.74699 -1.882426,2.04612 -4.583297,3.27378 -2.700872,1.18675 -6.056501,1.18675 z"
         id="path242" />
      <path
         d="m 67.189475,156.10594 q -2.168882,0 -4.296841,-0.81845 -2.087037,-0.85937 -3.764852,-2.45534 -1.677814,-1.59597 -2.700871,-3.88762 -1.023058,-2.33257 -1.023058,-5.27897 0,-2.98733 0.982135,-5.27898 1.023058,-2.33257 2.65995,-3.92854 1.677814,-1.59597 3.805774,-2.41442 2.127959,-0.85936 4.419608,-0.85936 2.373493,0 4.378686,0.90029 2.005192,0.90029 3.314706,2.45533 v -2.86456 h 5.52451 v 23.93955 h -5.52451 v -3.1101 q -1.309514,1.67782 -3.355629,2.65995 -2.046115,0.94122 -4.419608,0.94122 z m 0.900291,-5.07437 q 1.514125,0 2.823638,-0.57291 1.350436,-0.57291 2.291649,-1.59597 0.941213,-1.02306 1.473203,-2.37349 0.572912,-1.35044 0.572912,-2.90549 0,-1.51412 -0.572912,-2.86456 -0.53199,-1.35043 -1.473203,-2.33257 -0.941213,-1.02306 -2.291649,-1.59597 -1.309513,-0.57291 -2.823638,-0.57291 -1.555048,0 -2.864561,0.57291 -1.309514,0.57291 -2.291649,1.55505 -0.982135,0.98213 -1.555047,2.33257 -0.53199,1.35044 -0.53199,2.90548 0,1.55505 0.53199,2.94641 0.572912,1.35043 1.555047,2.37349 0.982135,0.98214 2.291649,1.55505 1.309513,0.57291 2.864561,0.57291 z"
         id="path244" />
      <path
         d="m 83.64022,125.33237 h 5.565433 v 30.2825 H 83.64022 Z"
         id="path246" />
      <path
         d="m 103.40572,156.10594 q -2.16889,0 -4.296846,-0.81845 -2.087037,-0.85937 -3.764852,-2.45534 -1.677814,-1.59597 -2.700871,-3.88762 -1.023058,-2.33257 -1.023058,-5.27897 0,-2.98733 0.982135,-5.27898 1.023058,-2.33257 2.65995,-3.92854 1.677814,-1.59597 3.805773,-2.41442 2.127959,-0.85936 4.419609,-0.85936 2.37349,0 4.37869,0.90029 2.00519,0.90029 3.3147,2.45533 v -2.86456 h 5.52451 v 23.93955 h -5.52451 v -3.1101 q -1.30951,1.67782 -3.35563,2.65995 -2.04611,0.94122 -4.4196,0.94122 z m 0.90029,-5.07437 q 1.51412,0 2.82363,-0.57291 1.35044,-0.57291 2.29165,-1.59597 0.94122,-1.02306 1.47321,-2.37349 0.57291,-1.35044 0.57291,-2.90549 0,-1.51412 -0.57291,-2.86456 -0.53199,-1.35043 -1.47321,-2.33257 -0.94121,-1.02306 -2.29165,-1.59597 -1.30951,-0.57291 -2.82363,-0.57291 -1.55505,0 -2.86457,0.57291 -1.30951,0.57291 -2.291644,1.55505 -0.982135,0.98213 -1.555047,2.33257 -0.53199,1.35044 -0.53199,2.90548 0,1.55505 0.53199,2.94641 0.572912,1.35043 1.555047,2.37349 0.982134,0.98214 2.291644,1.55505 1.30952,0.57291 2.86457,0.57291 z"
         id="path248" />
      <path
         d="m 127.05878,143.42002 -8.67553,-11.7447 h 6.75218 l 5.44267,7.61155 5.40174,-7.61155 h 6.54757 l -8.59369,11.82655 9.1666,12.113 h -6.75218 l -5.85189,-7.97985 -5.6882,7.97985 h -6.75218 z"
         id="path250" />
      <path
         d="m 153.04445,154.42812 -9.82135,-22.7528 h 5.89281 l 6.67034,16.12339 6.30203,-16.12339 h 5.81097 l -14.28189,34.98857 h -5.60635 z"
         id="path252" />
      <path
         d="m 190.07917,156.02409 q -4.05131,0 -6.87495,-1.51412 -2.78272,-1.55505 -4.78791,-3.8467 l 5.07437,-4.01039 q 1.14582,1.96428 2.82364,3.02825 1.67781,1.02306 3.72392,1.02306 1.10491,0 1.92335,-0.32738 0.85937,-0.32737 1.43228,-0.85936 0.61384,-0.57292 0.90029,-1.30952 0.28646,-0.7366 0.28646,-1.51412 0,-0.94122 -0.53199,-1.59597 -0.53199,-0.65476 -1.39136,-1.1049 -0.85937,-0.49107 -2.00519,-0.85937 -1.1049,-0.3683 -2.29165,-0.7366 -1.51412,-0.49107 -3.02825,-1.06398 -1.51412,-0.57292 -2.74179,-1.51413 -1.18675,-0.98213 -1.96427,-2.37349 -0.73661,-1.43228 -0.73661,-3.56024 0,-1.80058 0.73661,-3.35563 0.7366,-1.55505 2.04611,-2.70087 1.35044,-1.18675 3.15102,-1.84151 1.80058,-0.65475 3.96946,-0.65475 1.80058,0 3.23286,0.32738 1.4732,0.32737 2.65995,0.90029 1.22767,0.57291 2.20981,1.39135 1.02305,0.77753 1.92334,1.71874 l -4.58329,3.4784 q -1.92335,-2.86456 -5.40175,-2.86456 -2.04611,0 -3.11009,0.98213 -1.06398,0.98214 -1.06398,2.41442 0,0.90029 0.49107,1.51412 0.49106,0.61384 1.30951,1.1049 0.85937,0.45015 1.96427,0.81845 1.1049,0.3683 2.33257,0.77752 1.51413,0.49107 3.02825,1.14583 1.55505,0.61383 2.78272,1.63689 1.26859,0.98213 2.04611,2.45534 0.77753,1.4732 0.77753,3.60116 0,1.75966 -0.69568,3.43747 -0.69568,1.67782 -2.0052,2.98733 -1.30951,1.26859 -3.23286,2.08704 -1.92335,0.77752 -4.37868,0.77752 z"
         id="path254" />
      <path
         d="m 202.80599,150.37681 q 0,-1.92334 0.69568,-3.47839 0.69568,-1.55505 1.80058,-2.82364 1.14583,-1.30951 2.53719,-2.37349 1.43228,-1.06398 2.82363,-2.0052 1.10491,-0.77752 2.12796,-1.4732 1.02306,-0.7366 1.80059,-1.43228 0.77752,-0.7366 1.22766,-1.4732 0.49107,-0.77753 0.49107,-1.63689 0,-1.47321 -1.06398,-2.49626 -1.02306,-1.06398 -3.02825,-1.06398 -1.96427,0 -3.23286,1.18674 -1.22767,1.18675 -2.00519,3.06918 l -4.78791,-2.41442 q 1.39136,-3.06917 3.88762,-4.82883 2.53718,-1.80058 6.17926,-1.80058 2.25073,0 4.05131,0.65475 1.80058,0.65476 3.06917,1.80059 1.2686,1.1049 1.92335,2.65994 0.65476,1.51413 0.65476,3.27379 0,1.80058 -0.65476,3.19194 -0.65475,1.39136 -1.71873,2.5781 -1.06398,1.14583 -2.41442,2.12796 -1.30951,0.98214 -2.65995,1.88243 -1.18675,0.77752 -2.29165,1.55505 -1.06398,0.7366 -1.92335,1.55504 -0.85936,0.81845 -1.39135,1.71874 -0.53199,0.90029 -0.53199,1.96427 h 13.46343 v 5.3199 h -19.02887 z"
         id="path256" />
      <path
         d="m 232.9657,156.02409 q -2.86456,0 -5.27898,-0.94121 -2.37349,-0.98214 -4.29684,-3.23286 l 4.82883,-3.60117 q 0.94122,1.43228 2.12796,2.08704 1.18675,0.61384 2.57811,0.61384 1.92335,0 3.15102,-1.02306 1.26859,-1.06398 1.26859,-2.94641 0,-1.88242 -1.43228,-2.98732 -1.39136,-1.14583 -3.68301,-1.14583 h -3.06917 v -5.11529 h 3.06917 q 2.45534,0 3.60116,-1.18674 1.14583,-1.18675 1.14583,-2.78272 0,-1.63689 -1.14583,-2.61903 -1.14582,-0.98213 -3.06917,-0.98213 -1.75966,0 -2.82364,0.77752 -1.02306,0.77753 -1.71874,2.08704 l -4.74698,-2.45534 q 1.30951,-2.45534 3.76485,-3.84669 2.49626,-1.39136 5.44267,-1.39136 2.16888,0 3.96946,0.61383 1.80058,0.57291 3.06917,1.67782 1.26859,1.06398 1.96427,2.61902 0.69568,1.55505 0.69568,3.4784 0,2.04611 -0.90029,3.68301 -0.90029,1.59597 -2.49626,2.74179 1.8415,1.06398 2.86456,2.78272 1.06398,1.71873 1.06398,4.0513 0,1.92335 -0.65476,3.60117 -0.65475,1.63689 -1.92335,2.86456 -1.22766,1.18674 -3.11009,1.88242 -1.8415,0.69568 -4.25592,0.69568 z"
         id="path258" />
    </g>
  </g>
</svg>
